<svg id="Layer_1" xmlns="http://www.w3.org/2000/svg" xmlns:xlink="http://www.w3.org/1999/xlink" viewBox="0 0 150 25.14"><defs><style>.cls-1{letter-spacing:.43em;}.cls-2{mask:url(#mask-41);}.cls-3{mask:url(#mask-40);}.cls-4{mask:url(#mask-35);}.cls-5{mask:url(#mask-31);}.cls-6{mask:url(#mask-30);}.cls-7{mask:url(#mask-32);}.cls-8{mask:url(#mask-34);}.cls-9{mask:url(#mask-33);}.cls-10{mask:url(#mask-22);}.cls-11{mask:url(#mask-23);}.cls-12{mask:url(#mask-24);}.cls-13{mask:url(#mask-25);}.cls-14{mask:url(#mask-15);}.cls-15{mask:url(#mask-17);}.cls-16{mask:url(#mask-18);}.cls-17{mask:url(#mask-14);}.cls-18{mask:url(#mask-13);}.cls-19{mask:url(#mask-19);}.cls-20{mask:url(#mask-12);}.cls-21{mask:url(#mask-20);}.cls-22{mask:url(#mask-21);}.cls-23{mask:url(#mask-37);}.cls-24{mask:url(#mask-36);}.cls-25{mask:url(#mask-38);}.cls-26{mask:url(#mask-39);}.cls-27{mask:url(#mask-11);}.cls-28{mask:url(#mask-16);}.cls-29{mask:url(#mask-10);}.cls-30{mask:url(#mask-27);}.cls-31{mask:url(#mask-28);}.cls-32{mask:url(#mask-29);}.cls-33{mask:url(#mask-26);}.cls-34{filter:url(#luminosity-noclip-9);}.cls-35{filter:url(#luminosity-noclip-7);}.cls-36{filter:url(#luminosity-noclip-3);}.cls-37{filter:url(#luminosity-noclip-5);}.cls-38{mask:url(#mask);}.cls-39{filter:url(#luminosity-noclip);}.cls-40{fill:#f7f5bc;}.cls-41{fill:#861619;}.cls-42{filter:url(#luminosity-noclip-17);}.cls-43{filter:url(#luminosity-noclip-15);}.cls-44{filter:url(#luminosity-noclip-25);}.cls-45{filter:url(#luminosity-noclip-27);}.cls-46{filter:url(#luminosity-noclip-19);}.cls-47{filter:url(#luminosity-noclip-13);}.cls-48{filter:url(#luminosity-noclip-11);}.cls-49{filter:url(#luminosity-noclip-21);}.cls-50{filter:url(#luminosity-noclip-23);}.cls-51{fill:url(#linear-gradient-6);}.cls-51,.cls-52,.cls-53,.cls-54,.cls-55,.cls-56,.cls-57,.cls-58,.cls-59,.cls-60,.cls-61,.cls-62,.cls-63,.cls-64{mix-blend-mode:multiply;}.cls-52{fill:url(#linear-gradient-8);}.cls-53{fill:url(#linear-gradient-4);}.cls-65{letter-spacing:.5em;}.cls-66{fill:#fff;font-family:Mismo-Bold, Mismo;font-size:9.96px;font-weight:700;}.cls-67{fill:url(#linear-gradient-9);}.cls-68{fill:url(#linear-gradient-3);}.cls-69{fill:url(#linear-gradient-2);}.cls-70{fill:url(#linear-gradient-7);}.cls-71{fill:url(#linear-gradient-5);}.cls-54{fill:url(#linear-gradient);}.cls-72{fill:url(#linear-gradient-14);}.cls-73{fill:url(#linear-gradient-18);}.cls-74{fill:url(#linear-gradient-20);}.cls-75{fill:url(#linear-gradient-21);}.cls-76{fill:url(#linear-gradient-23);}.cls-77{fill:url(#linear-gradient-16);}.cls-78{fill:url(#linear-gradient-13);}.cls-79{fill:url(#linear-gradient-11);}.cls-80{fill:url(#linear-gradient-27);}.cls-81{fill:url(#linear-gradient-25);}.cls-82{fill:url(#linear-gradient-29);}.cls-83{fill:url(#linear-gradient-31);}.cls-55{fill:url(#linear-gradient-17);}.cls-56{fill:url(#linear-gradient-19);}.cls-57{fill:url(#linear-gradient-15);}.cls-58{fill:url(#linear-gradient-22);}.cls-59{fill:url(#linear-gradient-12);}.cls-60{fill:url(#linear-gradient-10);}.cls-61{fill:url(#linear-gradient-28);}.cls-62{fill:url(#linear-gradient-30);}.cls-63{fill:url(#linear-gradient-26);}.cls-64{fill:url(#linear-gradient-24);}.cls-84{mask:url(#mask-3);}.cls-85{mask:url(#mask-2);}.cls-86{mask:url(#mask-5);}.cls-87{mask:url(#mask-4);}.cls-88{mask:url(#mask-1);}.cls-89{mask:url(#mask-7);}.cls-90{mask:url(#mask-6);}.cls-91{mask:url(#mask-8);}.cls-92{mask:url(#mask-9);}</style><filter id="luminosity-noclip" x="130.05" y="5.19" width="19.98" height="19.98" color-interpolation-filters="sRGB" filterUnits="userSpaceOnUse"><feFlood flood-color="#fff" result="bg"/><feBlend in="SourceGraphic" in2="bg"/></filter><filter id="luminosity-noclip-2" x="130.05" y="-8204.57" width="19.98" height="32766" color-interpolation-filters="sRGB" filterUnits="userSpaceOnUse"><feFlood flood-color="#fff" result="bg"/><feBlend in="SourceGraphic" in2="bg"/></filter><mask id="mask-2" x="130.05" y="-8204.57" width="19.98" height="32766" maskUnits="userSpaceOnUse"/><linearGradient id="linear-gradient" x1="126.07" y1="34.87" x2="139.99" y2="12.04" gradientTransform="translate(0 27.14) scale(1 -1)" gradientUnits="userSpaceOnUse"><stop offset="0" stop-color="#fff"/><stop offset="1" stop-color="#000"/></linearGradient><mask id="mask-1" x="130.05" y="5.19" width="19.98" height="19.98" maskUnits="userSpaceOnUse"><g class="cls-39"><g class="cls-85"><rect class="cls-54" x="130.05" y="5.19" width="19.98" height="19.98"/></g></g></mask><linearGradient id="linear-gradient-2" x1="126.07" y1="34.87" x2="139.99" y2="12.04" gradientTransform="translate(0 27.14) scale(1 -1)" gradientUnits="userSpaceOnUse"><stop offset="0" stop-color="#fff"/><stop offset="1" stop-color="#fff"/></linearGradient><mask id="mask" x="130.05" y="5.19" width="19.98" height="19.98" maskUnits="userSpaceOnUse"><g id="id0"><g class="cls-88"><rect class="cls-69" x="130.05" y="5.19" width="19.98" height="19.98"/></g></g></mask><linearGradient id="linear-gradient-3" x1="140.04" y1="-5.29" x2="140.04" y2="32.18" gradientTransform="translate(0 27.14) scale(1 -1)" gradientUnits="userSpaceOnUse"><stop offset="0" stop-color="#c63027"/><stop offset="1" stop-color="#fdf166"/></linearGradient><filter id="luminosity-noclip-3" x="130.05" y="5.19" width="19.98" height="19.98" color-interpolation-filters="sRGB" filterUnits="userSpaceOnUse"><feFlood flood-color="#fff" result="bg"/><feBlend in="SourceGraphic" in2="bg"/></filter><filter id="luminosity-noclip-4" x="130.05" y="-8204.57" width="19.98" height="32766" color-interpolation-filters="sRGB" filterUnits="userSpaceOnUse"><feFlood flood-color="#fff" result="bg"/><feBlend in="SourceGraphic" in2="bg"/></filter><mask id="mask-5" x="130.05" y="-8204.57" width="19.98" height="32766" maskUnits="userSpaceOnUse"/><linearGradient id="linear-gradient-4" x1="167.05" y1="38.96" x2="144.57" y2="16.49" xlink:href="#linear-gradient"/><mask id="mask-4" x="130.05" y="5.19" width="19.98" height="19.98" maskUnits="userSpaceOnUse"><g class="cls-36"><g class="cls-86"><rect class="cls-53" x="130.05" y="5.19" width="19.98" height="19.98"/></g></g></mask><linearGradient id="linear-gradient-5" x1="167.05" y1="38.96" x2="144.57" y2="16.49" xlink:href="#linear-gradient-2"/><mask id="mask-3" x="130.05" y="5.19" width="19.98" height="19.98" maskUnits="userSpaceOnUse"><g id="id2"><g class="cls-87"><rect class="cls-71" x="130.05" y="5.19" width="19.98" height="19.98"/></g></g></mask><filter id="luminosity-noclip-5" x="130.05" y="11.39" width="19.98" height="13.78" color-interpolation-filters="sRGB" filterUnits="userSpaceOnUse"><feFlood flood-color="#fff" result="bg"/><feBlend in="SourceGraphic" in2="bg"/></filter><filter id="luminosity-noclip-6" x="130.05" y="-8204.57" width="19.98" height="32766" color-interpolation-filters="sRGB" filterUnits="userSpaceOnUse"><feFlood flood-color="#fff" result="bg"/><feBlend in="SourceGraphic" in2="bg"/></filter><mask id="mask-8" x="130.05" y="-8204.57" width="19.98" height="32766" maskUnits="userSpaceOnUse"/><linearGradient id="linear-gradient-6" x1="140.04" y1="-217.16" x2="140.04" y2="36.76" xlink:href="#linear-gradient"/><mask id="mask-7" x="130.05" y="11.39" width="19.98" height="13.78" maskUnits="userSpaceOnUse"><g class="cls-37"><g class="cls-91"><rect class="cls-51" x="130.05" y="11.39" width="19.98" height="13.78"/></g></g></mask><linearGradient id="linear-gradient-7" x1="140.04" y1="-217.16" x2="140.04" y2="36.76" xlink:href="#linear-gradient-2"/><mask id="mask-6" x="130.05" y="11.39" width="19.98" height="13.78" maskUnits="userSpaceOnUse"><g id="id4"><g class="cls-89"><rect class="cls-70" x="130.05" y="11.39" width="19.98" height="13.78"/></g></g></mask><filter id="luminosity-noclip-7" x="130.73" y="12.14" width="6.92" height="6.83" color-interpolation-filters="sRGB" filterUnits="userSpaceOnUse"><feFlood flood-color="#fff" result="bg"/><feBlend in="SourceGraphic" in2="bg"/></filter><filter id="luminosity-noclip-8" x="130.73" y="-8204.57" width="6.92" height="32766" color-interpolation-filters="sRGB" filterUnits="userSpaceOnUse"><feFlood flood-color="#fff" result="bg"/><feBlend in="SourceGraphic" in2="bg"/></filter><mask id="mask-11" x="130.73" y="-8204.57" width="6.92" height="32766" maskUnits="userSpaceOnUse"/><linearGradient id="linear-gradient-8" x1="131.25" y1=".61" x2="134.23" y2="11.75" xlink:href="#linear-gradient"/><mask id="mask-10" x="130.73" y="12.14" width="6.92" height="6.83" maskUnits="userSpaceOnUse"><g class="cls-35"><g class="cls-27"><rect class="cls-52" x="130.73" y="12.14" width="6.92" height="6.83"/></g></g></mask><linearGradient id="linear-gradient-9" x1="131.25" y1=".61" x2="134.23" y2="11.75" xlink:href="#linear-gradient-2"/><mask id="mask-9" x="130.73" y="12.14" width="6.92" height="6.83" maskUnits="userSpaceOnUse"><g id="id6"><g class="cls-29"><rect class="cls-67" x="130.73" y="12.14" width="6.92" height="6.83"/></g></g></mask><filter id="luminosity-noclip-9" x="134.16" y="-.03" width="15.87" height="25.2" color-interpolation-filters="sRGB" filterUnits="userSpaceOnUse"><feFlood flood-color="#fff" result="bg"/><feBlend in="SourceGraphic" in2="bg"/></filter><filter id="luminosity-noclip-10" x="134.16" y="-8204.57" width="15.87" height="32766" color-interpolation-filters="sRGB" filterUnits="userSpaceOnUse"><feFlood flood-color="#fff" result="bg"/><feBlend in="SourceGraphic" in2="bg"/></filter><mask id="mask-14" x="134.16" y="-8204.57" width="15.87" height="32766" maskUnits="userSpaceOnUse"/><linearGradient id="linear-gradient-10" x1="142.1" y1="-112.98" x2="142.1" y2="28.24" xlink:href="#linear-gradient"/><mask id="mask-13" x="134.16" y="-.03" width="15.87" height="25.2" maskUnits="userSpaceOnUse"><g class="cls-34"><g class="cls-17"><rect class="cls-60" x="134.16" y="-.03" width="15.87" height="25.2"/></g></g></mask><linearGradient id="linear-gradient-11" x1="142.1" y1="-112.98" x2="142.1" y2="28.24" xlink:href="#linear-gradient-2"/><mask id="mask-12" x="134.16" y="-.03" width="15.87" height="25.2" maskUnits="userSpaceOnUse"><g id="id8"><g class="cls-18"><rect class="cls-79" x="134.16" y="-.03" width="15.87" height="25.2"/></g></g></mask><filter id="luminosity-noclip-11" x="137.61" y="-.03" width="12.42" height="25.19" color-interpolation-filters="sRGB" filterUnits="userSpaceOnUse"><feFlood flood-color="#fff" result="bg"/><feBlend in="SourceGraphic" in2="bg"/></filter><filter id="luminosity-noclip-12" x="137.61" y="-8204.57" width="12.42" height="32766" color-interpolation-filters="sRGB" filterUnits="userSpaceOnUse"><feFlood flood-color="#fff" result="bg"/><feBlend in="SourceGraphic" in2="bg"/></filter><mask id="mask-17" x="137.61" y="-8204.57" width="12.42" height="32766" maskUnits="userSpaceOnUse"/><linearGradient id="linear-gradient-12" x1="143.82" y1="84.51" x2="143.82" y2="2.54" xlink:href="#linear-gradient"/><mask id="mask-16" x="137.61" y="-.03" width="12.42" height="25.19" maskUnits="userSpaceOnUse"><g class="cls-48"><g class="cls-15"><rect class="cls-59" x="137.61" y="-.03" width="12.42" height="25.19"/></g></g></mask><linearGradient id="linear-gradient-13" x1="143.82" y1="84.51" x2="143.82" y2="2.54" xlink:href="#linear-gradient-2"/><mask id="mask-15" x="137.61" y="-.03" width="12.42" height="25.19" maskUnits="userSpaceOnUse"><g id="id10"><g class="cls-28"><rect class="cls-78" x="137.61" y="-.03" width="12.42" height="25.19"/></g></g></mask><linearGradient id="linear-gradient-14" x1="136.72" y1="10.19" x2="116.11" y2="22.09" xlink:href="#linear-gradient-3"/><filter id="luminosity-noclip-13" x="130.05" y="14.12" width="3.69" height="4.74" color-interpolation-filters="sRGB" filterUnits="userSpaceOnUse"><feFlood flood-color="#fff" result="bg"/><feBlend in="SourceGraphic" in2="bg"/></filter><filter id="luminosity-noclip-14" x="130.05" y="-8204.57" width="3.69" height="32766" color-interpolation-filters="sRGB" filterUnits="userSpaceOnUse"><feFlood flood-color="#fff" result="bg"/><feBlend in="SourceGraphic" in2="bg"/></filter><mask id="mask-20" x="130.05" y="-8204.57" width="3.69" height="32766" maskUnits="userSpaceOnUse"/><linearGradient id="linear-gradient-15" x1="131.9" y1="-217.16" x2="131.9" y2="36.76" xlink:href="#linear-gradient"/><mask id="mask-19" x="130.05" y="14.12" width="3.69" height="4.74" maskUnits="userSpaceOnUse"><g class="cls-47"><g class="cls-21"><rect class="cls-57" x="130.05" y="14.12" width="3.69" height="4.74"/></g></g></mask><linearGradient id="linear-gradient-16" x1="131.9" y1="-217.16" x2="131.9" y2="36.76" xlink:href="#linear-gradient-2"/><mask id="mask-18" x="130.05" y="14.12" width="3.69" height="4.74" maskUnits="userSpaceOnUse"><g id="id12"><g class="cls-19"><rect class="cls-77" x="130.05" y="14.12" width="3.69" height="4.74"/></g></g></mask><filter id="luminosity-noclip-15" x="133.08" y="12.13" width="4.55" height="6.54" color-interpolation-filters="sRGB" filterUnits="userSpaceOnUse"><feFlood flood-color="#fff" result="bg"/><feBlend in="SourceGraphic" in2="bg"/></filter><filter id="luminosity-noclip-16" x="133.08" y="-8204.57" width="4.55" height="32766" color-interpolation-filters="sRGB" filterUnits="userSpaceOnUse"><feFlood flood-color="#fff" result="bg"/><feBlend in="SourceGraphic" in2="bg"/></filter><mask id="mask-23" x="133.08" y="-8204.57" width="4.55" height="32766" maskUnits="userSpaceOnUse"/><linearGradient id="linear-gradient-17" x1="147.62" y1="15.02" x2="131.74" y2="10.77" xlink:href="#linear-gradient"/><mask id="mask-22" x="133.08" y="12.13" width="4.55" height="6.54" maskUnits="userSpaceOnUse"><g class="cls-43"><g class="cls-11"><rect class="cls-55" x="133.08" y="12.13" width="4.55" height="6.54"/></g></g></mask><linearGradient id="linear-gradient-18" x1="147.62" y1="15.02" x2="131.74" y2="10.77" xlink:href="#linear-gradient-2"/><mask id="mask-21" x="133.08" y="12.13" width="4.55" height="6.54" maskUnits="userSpaceOnUse"><g id="id14"><g class="cls-10"><rect class="cls-73" x="133.08" y="12.13" width="4.55" height="6.54"/></g></g></mask><filter id="luminosity-noclip-17" x="130.26" y="12.13" width="7.38" height="6.73" color-interpolation-filters="sRGB" filterUnits="userSpaceOnUse"><feFlood flood-color="#fff" result="bg"/><feBlend in="SourceGraphic" in2="bg"/></filter><filter id="luminosity-noclip-18" x="130.26" y="-8204.57" width="7.38" height="32766" color-interpolation-filters="sRGB" filterUnits="userSpaceOnUse"><feFlood flood-color="#fff" result="bg"/><feBlend in="SourceGraphic" in2="bg"/></filter><mask id="mask-26" x="130.26" y="-8204.57" width="7.38" height="32766" maskUnits="userSpaceOnUse"/><linearGradient id="linear-gradient-19" x1="141.15" y1="18.85" x2="131.06" y2="8.76" xlink:href="#linear-gradient"/><mask id="mask-25" x="130.26" y="12.13" width="7.38" height="6.73" maskUnits="userSpaceOnUse"><g class="cls-42"><g class="cls-33"><rect class="cls-56" x="130.26" y="12.13" width="7.38" height="6.73"/></g></g></mask><linearGradient id="linear-gradient-20" x1="141.15" y1="18.85" x2="131.06" y2="8.76" xlink:href="#linear-gradient-2"/><mask id="mask-24" x="130.26" y="12.13" width="7.38" height="6.73" maskUnits="userSpaceOnUse"><g id="id16"><g class="cls-13"><rect class="cls-74" x="130.26" y="12.13" width="7.38" height="6.73"/></g></g></mask><linearGradient id="linear-gradient-21" x1="145.27" y1="3.35" x2="145.28" y2="50.33" xlink:href="#linear-gradient-3"/><filter id="luminosity-noclip-19" x="140.52" y="5.62" width="9.52" height="19.54" color-interpolation-filters="sRGB" filterUnits="userSpaceOnUse"><feFlood flood-color="#fff" result="bg"/><feBlend in="SourceGraphic" in2="bg"/></filter><filter id="luminosity-noclip-20" x="140.52" y="-8204.57" width="9.52" height="32766" color-interpolation-filters="sRGB" filterUnits="userSpaceOnUse"><feFlood flood-color="#fff" result="bg"/><feBlend in="SourceGraphic" in2="bg"/></filter><mask id="mask-29" x="140.52" y="-8204.57" width="9.52" height="32766" maskUnits="userSpaceOnUse"/><linearGradient id="linear-gradient-22" x1="169.77" y1="36.24" x2="147.29" y2="13.77" xlink:href="#linear-gradient"/><mask id="mask-28" x="140.52" y="5.62" width="9.52" height="19.54" maskUnits="userSpaceOnUse"><g class="cls-46"><g class="cls-32"><rect class="cls-58" x="140.52" y="5.62" width="9.52" height="19.54"/></g></g></mask><linearGradient id="linear-gradient-23" x1="169.77" y1="36.24" x2="147.29" y2="13.77" xlink:href="#linear-gradient-2"/><mask id="mask-27" x="140.52" y="5.62" width="9.52" height="19.54" maskUnits="userSpaceOnUse"><g id="id18"><g class="cls-31"><rect class="cls-76" x="140.52" y="5.62" width="9.52" height="19.54"/></g></g></mask><filter id="luminosity-noclip-21" x="140.52" y="11.39" width="9.52" height="13.76" color-interpolation-filters="sRGB" filterUnits="userSpaceOnUse"><feFlood flood-color="#fff" result="bg"/><feBlend in="SourceGraphic" in2="bg"/></filter><filter id="luminosity-noclip-22" x="140.52" y="-8204.57" width="9.52" height="32766" color-interpolation-filters="sRGB" filterUnits="userSpaceOnUse"><feFlood flood-color="#fff" result="bg"/><feBlend in="SourceGraphic" in2="bg"/></filter><mask id="mask-32" x="140.52" y="-8204.57" width="9.52" height="32766" maskUnits="userSpaceOnUse"/><linearGradient id="linear-gradient-24" x1="145.27" y1="-217.16" x2="145.27" y2="36.76" xlink:href="#linear-gradient"/><mask id="mask-31" x="140.52" y="11.39" width="9.52" height="13.76" maskUnits="userSpaceOnUse"><g class="cls-49"><g class="cls-7"><rect class="cls-64" x="140.52" y="11.39" width="9.52" height="13.76"/></g></g></mask><linearGradient id="linear-gradient-25" x1="145.27" y1="-217.16" x2="145.27" y2="36.76" xlink:href="#linear-gradient-2"/><mask id="mask-30" x="140.52" y="11.39" width="9.52" height="13.76" maskUnits="userSpaceOnUse"><g id="id20"><g class="cls-5"><rect class="cls-81" x="140.52" y="11.39" width="9.52" height="13.76"/></g></g></mask><filter id="luminosity-noclip-23" x="140.52" y="-.03" width="6.99" height="25.19" color-interpolation-filters="sRGB" filterUnits="userSpaceOnUse"><feFlood flood-color="#fff" result="bg"/><feBlend in="SourceGraphic" in2="bg"/></filter><filter id="luminosity-noclip-24" x="140.52" y="-8204.57" width="6.99" height="32766" color-interpolation-filters="sRGB" filterUnits="userSpaceOnUse"><feFlood flood-color="#fff" result="bg"/><feBlend in="SourceGraphic" in2="bg"/></filter><mask id="mask-35" x="140.52" y="-8204.57" width="6.99" height="32766" maskUnits="userSpaceOnUse"/><linearGradient id="linear-gradient-26" x1="144.01" y1="-53.09" x2="144.01" y2="26.8" xlink:href="#linear-gradient"/><mask id="mask-34" x="140.52" y="-.03" width="6.99" height="25.19" maskUnits="userSpaceOnUse"><g class="cls-50"><g class="cls-4"><rect class="cls-63" x="140.52" y="-.03" width="6.99" height="25.19"/></g></g></mask><linearGradient id="linear-gradient-27" x1="144.01" y1="-53.09" x2="144.01" y2="26.8" xlink:href="#linear-gradient-2"/><mask id="mask-33" x="140.52" y="-.03" width="6.99" height="25.19" maskUnits="userSpaceOnUse"><g id="id22"><g class="cls-8"><rect class="cls-80" x="140.52" y="-.03" width="6.99" height="25.19"/></g></g></mask><filter id="luminosity-noclip-25" x="140.52" y="-.03" width="6.39" height="25.19" color-interpolation-filters="sRGB" filterUnits="userSpaceOnUse"><feFlood flood-color="#fff" result="bg"/><feBlend in="SourceGraphic" in2="bg"/></filter><filter id="luminosity-noclip-26" x="140.52" y="-8204.57" width="6.39" height="32766" color-interpolation-filters="sRGB" filterUnits="userSpaceOnUse"><feFlood flood-color="#fff" result="bg"/><feBlend in="SourceGraphic" in2="bg"/></filter><mask id="mask-38" x="140.52" y="-8204.57" width="6.39" height="32766" maskUnits="userSpaceOnUse"/><linearGradient id="linear-gradient-28" x1="139.79" y1="-.07" x2="146.58" y2="25.27" xlink:href="#linear-gradient"/><mask id="mask-37" x="140.52" y="-.03" width="6.39" height="25.19" maskUnits="userSpaceOnUse"><g class="cls-44"><g class="cls-25"><rect class="cls-61" x="140.52" y="-.03" width="6.39" height="25.19"/></g></g></mask><linearGradient id="linear-gradient-29" x1="139.79" y1="-.07" x2="146.58" y2="25.27" xlink:href="#linear-gradient-2"/><mask id="mask-36" x="140.52" y="-.03" width="6.39" height="25.19" maskUnits="userSpaceOnUse"><g id="id24"><g class="cls-23"><rect class="cls-82" x="140.52" y="-.03" width="6.39" height="25.19"/></g></g></mask><filter id="luminosity-noclip-27" x="140.52" y="14.77" width="9.48" height="10.38" color-interpolation-filters="sRGB" filterUnits="userSpaceOnUse"><feFlood flood-color="#fff" result="bg"/><feBlend in="SourceGraphic" in2="bg"/></filter><filter id="luminosity-noclip-28" x="140.52" y="-8204.57" width="9.48" height="32766" color-interpolation-filters="sRGB" filterUnits="userSpaceOnUse"><feFlood flood-color="#fff" result="bg"/><feBlend in="SourceGraphic" in2="bg"/></filter><mask id="mask-41" x="140.52" y="-8204.57" width="9.48" height="32766" maskUnits="userSpaceOnUse"/><linearGradient id="linear-gradient-30" x1="145.26" y1="-22.18" x2="145.26" y2="20.09" xlink:href="#linear-gradient"/><mask id="mask-40" x="140.52" y="14.77" width="9.48" height="10.38" maskUnits="userSpaceOnUse"><g class="cls-45"><g class="cls-2"><rect class="cls-62" x="140.52" y="14.77" width="9.48" height="10.38"/></g></g></mask><linearGradient id="linear-gradient-31" x1="145.26" y1="-22.18" x2="145.26" y2="20.09" xlink:href="#linear-gradient-2"/><mask id="mask-39" x="140.52" y="14.77" width="9.48" height="10.38" maskUnits="userSpaceOnUse"><g id="id26"><g class="cls-3"><rect class="cls-83" x="140.52" y="14.77" width="9.48" height="10.38"/></g></g></mask></defs><g><g class="cls-38"><path class="cls-41" d="m140.04,5.22c5.5,0,9.96,4.46,9.96,9.96s-4.46,9.96-9.96,9.96-9.96-4.46-9.96-9.96,4.46-9.96,9.96-9.96Z"/></g><path class="cls-68" d="m146.88,0c-1.91,2.49.65,5.93,2.03,9.58.61,1.62,1.09,3.43,1.09,5.6,0,5.42-4.29,9.69-9.45,9.94-5.7.28-10.46-4.25-10.46-9.94,0-1.73.44-3.36,1.22-4.78-.25.52-.39.93-.39,1.56,0,1.85,1.5,3.34,3.34,3.34s3.23-1.39,3.34-3.14C138.01,5.29,141.12.2,146.88,0h0Z"/><g class="cls-84"><path class="cls-41" d="m147.74,21.49l-.03.04s-.07.08-.11.13c-.02.02-.04.04-.06.07-.02.03-.05.06-.08.08-.03.04-.06.07-.1.11l-.03.04c-1.31,1.41-3.01,2.43-4.91,2.9h0c-.07.02-.14.04-.21.05h-.04c-.06.02-.12.04-.18.05-.03,0-.05.01-.08.02-.05,0-.1.02-.15.03-.04,0-.08.01-.12.02-.04,0-.08.01-.12.02-.05,0-.1.01-.15.02-.03,0-.06,0-.09.01-.06,0-.12.01-.18.02-.02,0-.04,0-.06,0-.06,0-.13.01-.19.02-.02,0-.04,0-.06,0-.05,0-.11,0-.17.01-.03,0-.06,0-.09,0-.09,0-.18,0-.27,0h0c-2.56.06-4.92-.85-6.72-2.4l-.02-.02s-.1-.09-.15-.13c-.01-.01-.03-.02-.04-.04-.03-.03-.07-.06-.1-.1-.03-.02-.05-.05-.08-.07h0c-1.38-1.32-2.38-3.03-2.83-4.96h0c-.02-.08-.03-.16-.05-.24v-.02c-.02-.07-.03-.15-.05-.22v-.04c-.02-.07-.03-.14-.04-.21v-.05c-.02-.07-.03-.13-.03-.2,0-.02,0-.04,0-.07,0-.06-.01-.12-.02-.19,0-.03,0-.05,0-.08,0-.06-.01-.11-.02-.17,0-.04,0-.08,0-.12,0-.04,0-.09,0-.13,0-.05,0-.1,0-.16,0-.03,0-.07,0-.1,0-.09,0-.17,0-.26s0-.17,0-.25h0c0-.09,0-.17,0-.25h0c0-.09,0-.17.02-.25v-.02c0-.08.01-.16.02-.24h0c0-.09.02-.17.03-.25h0c.01-.09.02-.17.03-.25h0c.01-.09.02-.16.04-.24v-.02c.02-.07.03-.15.05-.22v-.03c.02-.07.04-.14.05-.21v-.03c.02-.07.04-.14.06-.2v-.04c.03-.07.04-.13.06-.2v-.05c.03-.06.05-.12.07-.19l.02-.05c.02-.06.04-.12.06-.18l.02-.06c.02-.06.04-.12.06-.17l.02-.06c.02-.06.04-.11.06-.16l.02-.06c.02-.05.04-.11.07-.16.01-.02.02-.05.03-.07.02-.05.04-.09.06-.14.01-.03.03-.06.04-.09.02-.04.04-.08.06-.12.02-.03.03-.06.05-.1.02-.04.04-.08.06-.12.02-.03.03-.06.05-.1.02-.04.04-.08.06-.12.02-.03.03-.06.05-.09-.25.52-.39.93-.39,1.56,0,1.85,1.5,3.34,3.34,3.34s3.23-1.39,3.34-3.14c.16-2.62.7-4.98,1.64-6.91.26-.02.53-.03.8-.03,5.5,0,9.96,4.46,9.96,9.96,0,2.4-.85,4.59-2.26,6.31h0Z"/></g><g class="cls-90"><path class="cls-41" d="m149.5,11.42c.3,1.13.5,2.37.5,3.76,0,5.42-4.29,9.69-9.45,9.94-5.7.28-10.46-4.25-10.46-9.94,0-.34.02-.69.05-1.02,1.58,3.57,5.15,6.05,9.3,6.05,5.15,0,9.4-3.83,10.07-8.79h0Z"/></g><g class="cls-92"><path class="cls-40" d="m130.76,18.79h0c3.58.35,6.83-1.9,6.84-6.63h0c.1,1.85-.26,3.43-1.1,4.55-.38.51-.85.96-1.41,1.33-1.07.71-2.92,1.1-4.32.74h0Z"/></g><g class="cls-20"><path class="cls-41" d="m146.88,0c-1.91,2.49.65,5.93,2.03,9.58.61,1.62,1.09,3.43,1.09,5.6,0,5.42-4.29,9.69-9.45,9.94-2.37.12-4.58-.6-6.36-1.89,4.42-1.47,6.72-4.78,6.48-11.68-.16-4.72.46-10.46,6.2-11.55h0Z"/></g><g class="cls-14"><path class="cls-40" d="m146.88,0c-1.91,2.49.65,5.93,2.03,9.58.61,1.62,1.09,3.43,1.09,5.6,0,5.42-4.29,9.69-9.45,9.94,1.68-1.11,2.58-2.34,3.18-4.04,1.35-3.8-.51-8.96-.97-13.16-.34-3.16-4.11-1.92-5.12,3.62.56-6.56,3.65-11.35,9.23-11.54h0Z"/></g><path class="cls-72" d="m130.76,18.79c-.44-1.12-.68-2.34-.68-3.62,0-1.73.44-3.36,1.22-4.78-.25.52-.39.93-.39,1.56,0,1.85,1.5,3.34,3.34,3.34s3.23-1.39,3.34-3.14c0,4.73-3.26,6.99-6.84,6.63h0Z"/><g class="cls-16"><path class="cls-41" d="m130.76,18.79c-.44-1.12-.68-2.34-.68-3.62,0-.34.02-.69.05-1.02.77,1.74,2.02,3.23,3.58,4.29-.91.33-1.92.45-2.95.34Z"/></g><g class="cls-22"><path class="cls-41" d="m133.54,15.22c2.01.45,3.94-1.01,4.06-3.06,0,3.65-1.95,5.83-4.48,6.47,1.2-.44,2.04-1.24,2.08-1.89.04-.67-.53-1.22-1.66-1.52h0Z"/></g><g class="cls-12"><path class="cls-41" d="m130.76,18.79c-.2-.51-.36-1.05-.47-1.6,3.28.82,7.12-1.32,7.31-5.03,0,4.73-3.26,6.99-6.84,6.63h0Z"/></g><path class="cls-75" d="m146.88,0c-1.91,2.49.65,5.93,2.03,9.58.61,1.62,1.09,3.43,1.09,5.6,0,5.42-4.29,9.69-9.45,9.94C150.75,19.24,136.65,4.27,146.88,0h0Z"/><g class="cls-30"><path class="cls-41" d="m147.74,21.49l-.03.04s-.07.08-.11.13c-.02.02-.04.04-.06.07-.02.03-.05.06-.08.08-.03.04-.06.07-.1.11l-.03.04c-1.31,1.41-3.01,2.43-4.91,2.9h0c-.07.02-.14.04-.21.05h-.04c-.06.02-.12.04-.18.05-.03,0-.05.01-.08.02-.05,0-.1.02-.15.03-.04,0-.08.01-.12.02-.04,0-.08.01-.12.02-.05,0-.1.01-.15.02-.03,0-.06,0-.09.01-.06,0-.12.01-.18.02-.02,0-.04,0-.06,0-.06,0-.13.01-.19.02-.02,0-.04,0-.06,0-.05,0-.11,0-.17.01-.03,0-.06,0-.09,0,7.35-4.24,2.08-13.2,2.39-19.47,4.09,1.24,7.06,5.04,7.06,9.53,0,2.4-.85,4.59-2.26,6.31h0Z"/></g><g class="cls-6"><path class="cls-41" d="m149.5,11.42c.3,1.13.5,2.37.5,3.76,0,5.42-4.29,9.69-9.45,9.94,2.7-1.56,3.7-3.76,3.89-6.23,2.7-1.53,4.63-4.26,5.06-7.47h0Z"/></g><g class="cls-9"><path class="cls-41" d="m140.55,25.12C150.75,19.24,136.65,4.27,146.88,0c-3.88,2.58-.9,9.16.17,12.86,1.48,5.13-.91,11-6.5,12.26Z"/></g><g class="cls-24"><path class="cls-41" d="m146.88,0c-.42.54-.62,1.13-.67,1.76-6.18,5.03,3.93,18.59-5.66,23.36C150.75,19.24,136.65,4.27,146.88,0h0Z"/></g><g class="cls-26"><path class="cls-41" d="m149.96,16.03c-.42,5.01-4.52,8.86-9.41,9.1,4.13-2.39,4.27-6.26,3.66-10.32.76,1.29.82,3.24,1.26,4.3.78,1.88,3.96.54,4.49-3.08h0Z"/></g></g><text class="cls-66" transform="translate(0 20.57)"><tspan class="cls-1" x="0" y="0">A</tspan><tspan class="cls-65" x="13.08" y="0">URELIUS AI</tspan></text></svg>